<svg width="82" height="72" viewBox="0 0 82 72" fill="none" xmlns="http://www.w3.org/2000/svg">
<path d="M29.5915 0.0615368C27.8461 0.376503 26.2319 1.17048 25.0376 2.29256C24.4142 2.88312 23.699 3.88052 23.2331 4.80574C22.0848 7.10238 21.3302 11.3938 21.5402 14.4188C21.7567 17.516 22.6819 19.8192 24.4011 21.5318C25.8579 22.9886 27.5574 23.7235 29.4931 23.7235C31.4092 23.7235 33.1152 23.0542 34.4014 21.7943C35.5956 20.6329 36.3437 19.2483 36.8292 17.3191C37.2295 15.7443 37.2689 15.2784 37.2623 12.5356C37.2623 9.45152 37.1639 8.38194 36.7111 6.59056C35.8581 3.19153 33.9289 0.743967 31.6257 0.133717C31.0942 -0.0106449 30.1493 -0.0434532 29.5915 0.0615368Z" fill="white"/>
<path d="M52.0658 1.28858C51.5474 1.35419 50.6419 1.62979 50.1957 1.85289C49.2574 2.33191 48.1943 3.30962 47.525 4.30702C46.0355 6.52492 45.0447 10.3373 45.0447 13.8151C45.0447 15.5606 45.235 16.7679 45.7271 18.1853C46.4948 20.3835 47.8991 22.0305 49.802 22.9689C50.7535 23.4413 51.5934 23.6579 52.6367 23.7038C55.7208 23.8481 58.2339 22.3914 59.6119 19.6551C60.629 17.6341 60.9899 15.1603 60.7996 11.5185C60.6881 9.3465 60.4846 8.13256 60.0188 6.78739C58.6998 2.98809 55.5895 0.835812 52.0658 1.28858Z" fill="white"/>
<path d="M72.1712 19.5239C69.4743 20.1342 67.8208 22.3324 67.2564 26.0529C67.2039 26.4138 67.1121 27.6672 67.0596 28.8417C67.0071 30.0163 66.9021 31.7224 66.8299 32.641C66.6003 35.561 66.6659 37.2277 67.0596 38.4679C67.8273 40.863 69.914 42.031 73.4377 42.031C74.855 42.031 75.8656 41.8473 76.8695 41.4142C78.6609 40.6399 80.0651 39.006 80.7607 36.88C81.9221 33.3563 81.4037 28.3168 79.4811 24.3141C78.6346 22.562 77.4404 21.02 76.3183 20.2523C75.8852 19.9504 75.006 19.5502 74.586 19.4649C74.0545 19.3533 72.7881 19.3861 72.1712 19.5239Z" fill="white"/>
<path d="M8.00311 19.8783C6.06737 20.331 4.39411 21.6106 3.003 23.7038C1.92686 25.3377 1.20506 27.2013 0.811347 29.3732C0.634178 30.3247 0.56856 32.851 0.680111 34.0059C1.04757 37.6805 2.27464 40.2856 4.26287 41.6045C5.49649 42.4182 6.83511 42.72 8.58712 42.5625C10.6147 42.3788 12.1764 41.7292 13.3773 40.5874C14.7487 39.2816 15.4508 37.5755 15.6476 35.0689C15.7723 33.5466 15.477 28.9139 15.1489 27.1685C14.6634 24.5503 13.7382 22.5096 12.4717 21.2563C11.8549 20.646 11.2447 20.2654 10.4966 20.0095C9.85355 19.793 8.64617 19.7274 8.00311 19.8783Z" fill="white"/>
<path d="M48.0368 31.9323C47.4791 32.0045 46.1208 32.3129 45.1431 32.582C41.4685 33.5859 40.3267 33.7762 38.3844 33.7237C37.2426 33.6975 36.7505 33.645 34.2504 33.3235C32.5378 33.0938 32.295 33.0807 30.6414 33.0807C28.9485 33.0741 28.8369 33.0872 28.1479 33.2513C27.7542 33.3431 27.1702 33.5137 26.8553 33.6319C24.7948 34.3799 23.1741 36.2828 22.7016 38.5073C22.5507 39.2029 22.5769 40.4562 22.7672 41.8079C22.9969 43.3827 23.0297 44.1636 22.9116 44.8198C22.5048 47.0377 20.8249 48.56 17.1897 49.9905C13.3182 51.5128 12.7342 51.7753 11.6187 52.5234C10.2407 53.4355 8.90209 54.9644 8.29184 56.303C7.43224 58.1993 7.7669 60.2335 9.39423 62.996C10.4572 64.8071 12.3799 66.8806 14.3025 68.298C14.4862 68.4292 14.6634 68.5605 14.6962 68.5933C14.8012 68.672 15.4377 69.0789 15.9757 69.4135C16.8091 69.9253 18.4561 70.6799 19.4863 71.0277C22.0848 71.8939 23.535 71.8217 25.3264 70.739C25.7857 70.4634 26.5075 69.9713 26.7043 69.8007C26.9471 69.5972 28.2332 68.777 28.6073 68.5867C29.9131 67.9371 31.1664 67.8518 32.6034 68.3242C33.1874 68.5145 34.421 69.1314 35.2675 69.6563C35.5759 69.8466 35.9171 70.05 36.0221 70.1156C36.1337 70.1747 36.4093 70.3387 36.6389 70.4765C38.3188 71.4674 39.8674 71.8939 41.2585 71.7495C42.374 71.638 43.3779 71.2771 44.9462 70.4437C48.3387 68.6327 49.1655 68.3571 51.0159 68.4292C52.1249 68.4752 52.7614 68.5933 54.3362 69.0723C57.289 69.9647 57.9911 70.1156 59.1657 70.1156C60.4387 70.1156 61.1868 69.8925 62.2366 69.2035C63.0766 68.6523 64.3955 67.2087 65.3535 65.7848C65.99 64.8399 67.7748 61.8608 68.1226 61.1587C69.1659 59.0786 69.1791 57.4054 68.162 56.1521C67.9061 55.8437 67.3155 55.4106 66.8627 55.2203C66.4953 55.0628 65.4388 54.8134 64.2052 54.5969C62.6041 54.3082 61.6855 53.9342 60.5896 53.1139C59.087 51.9853 57.289 49.7411 56.6985 48.2713C56.5279 47.8448 56.5016 47.6676 56.4754 47.018C56.4491 46.2109 56.5279 45.7647 56.9872 44.098C57.4203 42.51 57.5318 41.7685 57.5384 40.489C57.5449 39.4063 57.5318 39.2553 57.3678 38.6451C56.6657 36.0532 54.6774 33.6384 52.3152 32.5163C51.3178 32.0505 50.7338 31.9192 49.5067 31.893C48.9489 31.8799 48.2862 31.8995 48.0368 31.9323Z" fill="white"/>
</svg>
